<svg xmlns="http://www.w3.org/2000/svg" xmlns:xlink="http://www.w3.org/1999/xlink" width="500" zoomAndPan="magnify" viewBox="0 0 375 374.999991" height="500" preserveAspectRatio="xMidYMid meet" version="1.0"><defs><clipPath id="2fd0073faf"><path d="M 95 23 L 280 23 L 280 351 L 95 351 Z M 95 23 " clip-rule="nonzero"/></clipPath><clipPath id="85500c33d8"><path d="M 198.644531 0.285156 L 316.90625 51.777344 L 176.316406 374.6875 L 58.054688 323.199219 Z M 198.644531 0.285156 " clip-rule="nonzero"/></clipPath><clipPath id="153a17840c"><path d="M 257.777344 26.03125 C 225.117188 11.8125 167.179688 72.558594 128.363281 161.710938 C 89.546875 250.863281 84.554688 334.660156 117.214844 348.878906 C 149.871094 363.097656 207.8125 302.351562 246.625 213.199219 C 285.441406 124.046875 290.433594 40.25 257.777344 26.03125 Z M 257.777344 26.03125 " clip-rule="nonzero"/></clipPath><clipPath id="a3c96d2df3"><path d="M 0 0 L 185 0 L 185 328 L 0 328 Z M 0 0 " clip-rule="nonzero"/></clipPath><clipPath id="d02b4ad070"><path d="M 103.644531 -22.714844 L 221.90625 28.777344 L 81.316406 351.6875 L -36.945312 300.199219 Z M 103.644531 -22.714844 " clip-rule="nonzero"/></clipPath><clipPath id="0455e3ec4f"><path d="M 162.777344 3.03125 C 130.117188 -11.1875 72.179688 49.558594 33.363281 138.710938 C -5.453125 227.863281 -10.445312 311.660156 22.214844 325.878906 C 54.871094 340.097656 112.8125 279.351562 151.625 190.199219 C 190.441406 101.046875 195.433594 17.25 162.777344 3.03125 Z M 162.777344 3.03125 " clip-rule="nonzero"/></clipPath><clipPath id="fc3266faa5"><rect x="0" width="185" y="0" height="328"/></clipPath><clipPath id="d6c80a44f8"><path d="M 24 95 L 351 95 L 351 280 L 24 280 Z M 24 95 " clip-rule="nonzero"/></clipPath><clipPath id="ae7c906963"><path d="M 0.328125 176.273438 L 51.816406 58.011719 L 374.730469 198.601562 L 323.238281 316.863281 Z M 0.328125 176.273438 " clip-rule="nonzero"/></clipPath><clipPath id="8de1035007"><path d="M 26.074219 117.140625 C 11.855469 149.800781 72.597656 207.738281 161.75 246.554688 C 250.902344 285.371094 334.699219 290.363281 348.917969 257.707031 C 363.136719 225.046875 302.390625 167.109375 213.242188 128.292969 C 124.089844 89.476562 40.292969 84.484375 26.074219 117.140625 Z M 26.074219 117.140625 " clip-rule="nonzero"/></clipPath><clipPath id="f1ccc730a0"><path d="M 0 0 L 327 0 L 327 185 L 0 185 Z M 0 0 " clip-rule="nonzero"/></clipPath><clipPath id="b11356edcb"><path d="M -23.671875 81.273438 L 27.816406 -36.988281 L 350.730469 103.601562 L 299.238281 221.863281 Z M -23.671875 81.273438 " clip-rule="nonzero"/></clipPath><clipPath id="d525d1728e"><path d="M 2.074219 22.140625 C -12.144531 54.800781 48.597656 112.738281 137.75 151.554688 C 226.902344 190.371094 310.699219 195.363281 324.917969 162.707031 C 339.136719 130.046875 278.390625 72.109375 189.242188 33.292969 C 100.089844 -5.523438 16.292969 -10.515625 2.074219 22.140625 Z M 2.074219 22.140625 " clip-rule="nonzero"/></clipPath><clipPath id="e9981fd595"><rect x="0" width="327" y="0" height="185"/></clipPath><clipPath id="100002e09f"><path d="M 20 101 L 355 101 L 355 274 L 20 274 Z M 20 101 " clip-rule="nonzero"/></clipPath><clipPath id="cf3e4043a9"><path d="M 44.386719 308.578125 L -0.0195312 187.480469 L 330.640625 66.230469 L 375.046875 187.332031 Z M 44.386719 308.578125 " clip-rule="nonzero"/></clipPath><clipPath id="d1cbbd82af"><path d="M 22.183594 248.027344 C 34.445312 281.46875 118.394531 281.441406 209.683594 247.96875 C 300.976562 214.492188 365.039062 160.246094 352.777344 126.804688 C 340.515625 93.363281 256.570312 93.390625 165.277344 126.867188 C 73.988281 160.339844 9.921875 214.589844 22.183594 248.027344 Z M 22.183594 248.027344 " clip-rule="nonzero"/></clipPath><clipPath id="5bfb9fb1c2"><path d="M 0 0 L 335 0 L 335 173 L 0 173 Z M 0 0 " clip-rule="nonzero"/></clipPath><clipPath id="504126ea5c"><path d="M 24.386719 207.578125 L -20.019531 86.480469 L 310.640625 -34.769531 L 355.046875 86.332031 Z M 24.386719 207.578125 " clip-rule="nonzero"/></clipPath><clipPath id="1dd06c0247"><path d="M 2.183594 147.027344 C 14.445312 180.46875 98.394531 180.441406 189.683594 146.96875 C 280.976562 113.492188 345.039062 59.246094 332.777344 25.804688 C 320.515625 -7.636719 236.570312 -7.609375 145.277344 25.867188 C 53.988281 59.339844 -10.078125 113.589844 2.183594 147.027344 Z M 2.183594 147.027344 " clip-rule="nonzero"/></clipPath><clipPath id="fcd944ab7d"><rect x="0" width="335" y="0" height="173"/></clipPath><clipPath id="146592a9ed"><path d="M 99 21 L 276 21 L 276 353 L 99 353 Z M 99 21 " clip-rule="nonzero"/></clipPath><clipPath id="4f90d39dcc"><path d="M 311.921875 327.671875 L 191.886719 374.886719 L 62.96875 47.140625 L 183 -0.0742188 Z M 311.921875 327.671875 " clip-rule="nonzero"/></clipPath><clipPath id="06c26008c2"><path d="M 251.90625 351.277344 C 285.050781 338.238281 283.066406 254.316406 247.472656 163.832031 C 211.882812 73.34375 156.15625 10.558594 123.011719 23.597656 C 89.863281 36.636719 91.847656 120.558594 127.441406 211.046875 C 163.035156 301.53125 218.757812 364.316406 251.90625 351.277344 Z M 251.90625 351.277344 " clip-rule="nonzero"/></clipPath><clipPath id="a815537060"><path d="M 0 0 L 177 0 L 177 332 L 0 332 Z M 0 0 " clip-rule="nonzero"/></clipPath><clipPath id="6c3ecfd5f7"><path d="M 212.921875 306.671875 L 92.886719 353.886719 L -36.03125 26.140625 L 84 -21.074219 Z M 212.921875 306.671875 " clip-rule="nonzero"/></clipPath><clipPath id="462e2e68ee"><path d="M 152.90625 330.277344 C 186.050781 317.238281 184.066406 233.316406 148.472656 142.832031 C 112.882812 52.34375 57.15625 -10.441406 24.011719 2.597656 C -9.136719 15.636719 -7.152344 99.558594 28.441406 190.046875 C 64.035156 280.53125 119.757812 343.316406 152.90625 330.277344 Z M 152.90625 330.277344 " clip-rule="nonzero"/></clipPath><clipPath id="516cbe3429"><rect x="0" width="177" y="0" height="332"/></clipPath><clipPath id="5c575ceac9"><path d="M 85 85 L 290 85 L 290 290 L 85 290 Z M 85 85 " clip-rule="nonzero"/></clipPath><clipPath id="b4e950f640"><path d="M 134.609375 53.015625 L 321.929688 134.570312 L 240.371094 321.894531 L 53.050781 240.335938 Z M 134.609375 53.015625 " clip-rule="nonzero"/></clipPath><clipPath id="a5847bc7f5"><path d="M 228.269531 93.792969 C 176.542969 71.273438 116.351562 94.949219 93.828125 146.675781 C 71.308594 198.402344 94.984375 258.59375 146.710938 281.113281 C 198.4375 303.636719 258.628906 279.960938 281.152344 228.234375 C 303.671875 176.503906 279.996094 116.316406 228.269531 93.792969 Z M 228.269531 93.792969 " clip-rule="nonzero"/></clipPath><clipPath id="c17009f987"><path d="M 0 0 L 205 0 L 205 205 L 0 205 Z M 0 0 " clip-rule="nonzero"/></clipPath><clipPath id="513040f9fd"><path d="M 49.609375 -31.984375 L 236.929688 49.570312 L 155.371094 236.894531 L -31.949219 155.335938 Z M 49.609375 -31.984375 " clip-rule="nonzero"/></clipPath><clipPath id="8126492614"><path d="M 143.269531 8.792969 C 91.542969 -13.726562 31.351562 9.949219 8.828125 61.675781 C -13.691406 113.402344 9.984375 173.59375 61.710938 196.113281 C 113.4375 218.636719 173.628906 194.960938 196.152344 143.234375 C 218.671875 91.503906 194.996094 31.316406 143.269531 8.792969 Z M 143.269531 8.792969 " clip-rule="nonzero"/></clipPath><clipPath id="dc7a4cb3b0"><rect x="0" width="205" y="0" height="205"/></clipPath><clipPath id="bbcf547039"><rect x="0" width="375" y="0" height="375"/></clipPath></defs><g transform="matrix(1, 0, 0, 1, 0, 0)"><g clip-path="url(#bbcf547039)"><g clip-path="url(#2fd0073faf)"><g clip-path="url(#85500c33d8)"><g clip-path="url(#153a17840c)"><g transform="matrix(1, 0, 0, 1, 95, 23)"><g clip-path="url(#fc3266faa5)"><g clip-path="url(#a3c96d2df3)"><g clip-path="url(#d02b4ad070)"><g clip-path="url(#0455e3ec4f)"><path fill="#fdc72f" d="M 103.644531 -22.714844 L 221.90625 28.777344 L 81.316406 351.6875 L -36.945312 300.199219 Z M 103.644531 -22.714844 " fill-opacity="1" fill-rule="nonzero"/></g></g></g></g></g></g></g></g><g clip-path="url(#d6c80a44f8)"><g clip-path="url(#ae7c906963)"><g clip-path="url(#8de1035007)"><g transform="matrix(1, 0, 0, 1, 24, 95)"><g clip-path="url(#e9981fd595)"><g clip-path="url(#f1ccc730a0)"><g clip-path="url(#b11356edcb)"><g clip-path="url(#d525d1728e)"><path fill="#fdc72f" d="M -23.671875 81.273438 L 27.816406 -36.988281 L 350.730469 103.601562 L 299.238281 221.863281 Z M -23.671875 81.273438 " fill-opacity="1" fill-rule="nonzero"/></g></g></g></g></g></g></g></g><g clip-path="url(#100002e09f)"><g clip-path="url(#cf3e4043a9)"><g clip-path="url(#d1cbbd82af)"><g transform="matrix(1, 0, 0, 1, 20, 101)"><g clip-path="url(#fcd944ab7d)"><g clip-path="url(#5bfb9fb1c2)"><g clip-path="url(#504126ea5c)"><g clip-path="url(#1dd06c0247)"><path fill="#fdc72f" d="M 24.386719 207.578125 L -20.019531 86.480469 L 310.640625 -34.769531 L 355.046875 86.332031 Z M 24.386719 207.578125 " fill-opacity="1" fill-rule="nonzero"/></g></g></g></g></g></g></g></g><g clip-path="url(#146592a9ed)"><g clip-path="url(#4f90d39dcc)"><g clip-path="url(#06c26008c2)"><g transform="matrix(1, 0, 0, 1, 99, 21)"><g clip-path="url(#516cbe3429)"><g clip-path="url(#a815537060)"><g clip-path="url(#6c3ecfd5f7)"><g clip-path="url(#462e2e68ee)"><path fill="#fdc72f" d="M 212.921875 306.671875 L 92.886719 353.886719 L -36.03125 26.140625 L 84 -21.074219 Z M 212.921875 306.671875 " fill-opacity="1" fill-rule="nonzero"/></g></g></g></g></g></g></g></g><g clip-path="url(#5c575ceac9)"><g clip-path="url(#b4e950f640)"><g clip-path="url(#a5847bc7f5)"><g transform="matrix(1, 0, 0, 1, 85, 85)"><g clip-path="url(#dc7a4cb3b0)"><g clip-path="url(#c17009f987)"><g clip-path="url(#513040f9fd)"><g clip-path="url(#8126492614)"><path fill="#ec8c17" d="M 49.609375 -31.984375 L 236.929688 49.570312 L 155.371094 236.894531 L -31.949219 155.335938 Z M 49.609375 -31.984375 " fill-opacity="1" fill-rule="nonzero"/></g></g></g></g></g></g></g></g></g></g></svg>