<svg xmlns="http://www.w3.org/2000/svg" xmlns:xlink="http://www.w3.org/1999/xlink" width="500" zoomAndPan="magnify" viewBox="0 0 375 374.999991" height="500" preserveAspectRatio="xMidYMid meet" version="1.0"><defs><clipPath id="e3d1555321"><path d="M 95 24 L 280 24 L 280 352 L 95 352 Z M 95 24 " clip-rule="nonzero"/></clipPath><clipPath id="8eff453267"><path d="M 198.644531 0.925781 L 316.90625 52.417969 L 176.316406 375.328125 L 58.054688 323.839844 Z M 198.644531 0.925781 " clip-rule="nonzero"/></clipPath><clipPath id="c874fcd3f6"><path d="M 257.777344 26.671875 C 225.117188 12.453125 167.179688 73.199219 128.363281 162.351562 C 89.546875 251.503906 84.554688 335.300781 117.214844 349.519531 C 149.871094 363.738281 207.8125 302.992188 246.625 213.839844 C 285.441406 124.6875 290.433594 40.890625 257.777344 26.671875 Z M 257.777344 26.671875 " clip-rule="nonzero"/></clipPath><clipPath id="9ef8e53160"><path d="M 0 0 L 185 0 L 185 328 L 0 328 Z M 0 0 " clip-rule="nonzero"/></clipPath><clipPath id="c868e7d45f"><path d="M 103.644531 -23.074219 L 221.90625 28.417969 L 81.316406 351.328125 L -36.945312 299.839844 Z M 103.644531 -23.074219 " clip-rule="nonzero"/></clipPath><clipPath id="090c44f480"><path d="M 162.777344 2.671875 C 130.117188 -11.546875 72.179688 49.199219 33.363281 138.351562 C -5.453125 227.503906 -10.445312 311.300781 22.214844 325.519531 C 54.871094 339.738281 112.8125 278.992188 151.625 189.839844 C 190.441406 100.6875 195.433594 16.890625 162.777344 2.671875 Z M 162.777344 2.671875 " clip-rule="nonzero"/></clipPath><clipPath id="aab5385163"><rect x="0" width="185" y="0" height="328"/></clipPath><clipPath id="84eb39baae"><path d="M 24 96 L 351 96 L 351 280 L 24 280 Z M 24 96 " clip-rule="nonzero"/></clipPath><clipPath id="b4f4428d4a"><path d="M 0.328125 176.914062 L 51.816406 58.652344 L 374.730469 199.242188 L 323.238281 317.503906 Z M 0.328125 176.914062 " clip-rule="nonzero"/></clipPath><clipPath id="5b6b59af21"><path d="M 26.074219 117.78125 C 11.855469 150.441406 72.597656 208.378906 161.75 247.195312 C 250.902344 286.011719 334.699219 291.003906 348.917969 258.34375 C 363.136719 225.6875 302.390625 167.75 213.242188 128.933594 C 124.089844 90.117188 40.292969 85.125 26.074219 117.78125 Z M 26.074219 117.78125 " clip-rule="nonzero"/></clipPath><clipPath id="cff396a86c"><path d="M 0 0 L 327 0 L 327 184 L 0 184 Z M 0 0 " clip-rule="nonzero"/></clipPath><clipPath id="22ff774634"><path d="M -23.671875 80.914062 L 27.816406 -37.347656 L 350.730469 103.242188 L 299.238281 221.503906 Z M -23.671875 80.914062 " clip-rule="nonzero"/></clipPath><clipPath id="f511cd2727"><path d="M 2.074219 21.78125 C -12.144531 54.441406 48.597656 112.378906 137.75 151.195312 C 226.902344 190.011719 310.699219 195.003906 324.917969 162.34375 C 339.136719 129.6875 278.390625 71.75 189.242188 32.933594 C 100.089844 -5.882812 16.292969 -10.875 2.074219 21.78125 Z M 2.074219 21.78125 " clip-rule="nonzero"/></clipPath><clipPath id="fa25bfb045"><rect x="0" width="327" y="0" height="184"/></clipPath><clipPath id="1d7305424a"><path d="M 20 102 L 355 102 L 355 274 L 20 274 Z M 20 102 " clip-rule="nonzero"/></clipPath><clipPath id="d24be9932b"><path d="M 44.386719 309.21875 L -0.0195312 188.121094 L 330.640625 66.871094 L 375.046875 187.972656 Z M 44.386719 309.21875 " clip-rule="nonzero"/></clipPath><clipPath id="6dad2980d3"><path d="M 22.183594 248.667969 C 34.445312 282.109375 118.394531 282.082031 209.683594 248.609375 C 300.976562 215.132812 365.039062 160.886719 352.777344 127.445312 C 340.515625 94.003906 256.570312 94.03125 165.277344 127.507812 C 73.988281 160.980469 9.921875 215.226562 22.183594 248.667969 Z M 22.183594 248.667969 " clip-rule="nonzero"/></clipPath><clipPath id="d034bacbde"><path d="M 0 0 L 335 0 L 335 172 L 0 172 Z M 0 0 " clip-rule="nonzero"/></clipPath><clipPath id="bd49a390c4"><path d="M 24.386719 207.21875 L -20.019531 86.121094 L 310.640625 -35.128906 L 355.046875 85.972656 Z M 24.386719 207.21875 " clip-rule="nonzero"/></clipPath><clipPath id="e6be0d591e"><path d="M 2.183594 146.667969 C 14.445312 180.109375 98.394531 180.082031 189.683594 146.609375 C 280.976562 113.132812 345.039062 58.886719 332.777344 25.445312 C 320.515625 -7.996094 236.570312 -7.96875 145.277344 25.507812 C 53.988281 58.980469 -10.078125 113.226562 2.183594 146.667969 Z M 2.183594 146.667969 " clip-rule="nonzero"/></clipPath><clipPath id="d5f1006cd5"><rect x="0" width="335" y="0" height="172"/></clipPath><clipPath id="6fc1227b85"><path d="M 99 22 L 276 22 L 276 354 L 99 354 Z M 99 22 " clip-rule="nonzero"/></clipPath><clipPath id="9ca0cfa005"><path d="M 311.921875 328.3125 L 191.886719 375.527344 L 62.96875 47.78125 L 183 0.566406 Z M 311.921875 328.3125 " clip-rule="nonzero"/></clipPath><clipPath id="e23a7a2bde"><path d="M 251.90625 351.917969 C 285.050781 338.878906 283.066406 254.957031 247.472656 164.472656 C 211.882812 73.984375 156.15625 11.199219 123.011719 24.238281 C 89.863281 37.277344 91.847656 121.199219 127.441406 211.6875 C 163.035156 302.171875 218.757812 364.957031 251.90625 351.917969 Z M 251.90625 351.917969 " clip-rule="nonzero"/></clipPath><clipPath id="08a98110f7"><path d="M 0 0 L 177 0 L 177 332 L 0 332 Z M 0 0 " clip-rule="nonzero"/></clipPath><clipPath id="e95f364094"><path d="M 212.921875 306.3125 L 92.886719 353.527344 L -36.03125 25.78125 L 84 -21.433594 Z M 212.921875 306.3125 " clip-rule="nonzero"/></clipPath><clipPath id="77c1fb9268"><path d="M 152.90625 329.917969 C 186.050781 316.878906 184.066406 232.957031 148.472656 142.472656 C 112.882812 51.984375 57.15625 -10.800781 24.011719 2.238281 C -9.136719 15.277344 -7.152344 99.199219 28.441406 189.6875 C 64.035156 280.171875 119.757812 342.957031 152.90625 329.917969 Z M 152.90625 329.917969 " clip-rule="nonzero"/></clipPath><clipPath id="2eac22f849"><rect x="0" width="177" y="0" height="332"/></clipPath><clipPath id="e5f8d7305a"><path d="M 85 85 L 290 85 L 290 291 L 85 291 Z M 85 85 " clip-rule="nonzero"/></clipPath><clipPath id="c2926519de"><path d="M 134.609375 53.65625 L 321.929688 135.210938 L 240.371094 322.535156 L 53.050781 240.976562 Z M 134.609375 53.65625 " clip-rule="nonzero"/></clipPath><clipPath id="0eaf6a2758"><path d="M 228.269531 94.433594 C 176.542969 71.914062 116.351562 95.589844 93.828125 147.316406 C 71.308594 199.042969 94.984375 259.234375 146.710938 281.753906 C 198.4375 304.277344 258.628906 280.601562 281.152344 228.875 C 303.671875 177.144531 279.996094 116.957031 228.269531 94.433594 Z M 228.269531 94.433594 " clip-rule="nonzero"/></clipPath><clipPath id="4220b4caaf"><path d="M 0 0 L 205 0 L 205 206 L 0 206 Z M 0 0 " clip-rule="nonzero"/></clipPath><clipPath id="94c5c9b350"><path d="M 49.609375 -31.34375 L 236.929688 50.210938 L 155.371094 237.535156 L -31.949219 155.976562 Z M 49.609375 -31.34375 " clip-rule="nonzero"/></clipPath><clipPath id="2b6a2fa830"><path d="M 143.269531 9.433594 C 91.542969 -13.085938 31.351562 10.589844 8.828125 62.316406 C -13.691406 114.042969 9.984375 174.234375 61.710938 196.753906 C 113.4375 219.277344 173.628906 195.601562 196.152344 143.875 C 218.671875 92.144531 194.996094 31.957031 143.269531 9.433594 Z M 143.269531 9.433594 " clip-rule="nonzero"/></clipPath><clipPath id="381ef6d540"><rect x="0" width="205" y="0" height="206"/></clipPath><clipPath id="2130ea5e3e"><rect x="0" width="375" y="0" height="374"/></clipPath></defs><g transform="matrix(1, 0, 0, 1, 0, 1)"><g clip-path="url(#2130ea5e3e)"><g clip-path="url(#e3d1555321)"><g clip-path="url(#8eff453267)"><g clip-path="url(#c874fcd3f6)"><g transform="matrix(1, 0, 0, 1, 95, 24)"><g clip-path="url(#aab5385163)"><g clip-path="url(#9ef8e53160)"><g clip-path="url(#c868e7d45f)"><g clip-path="url(#090c44f480)"><path fill="#8b8b8b" d="M 103.644531 -23.074219 L 221.90625 28.417969 L 81.316406 351.328125 L -36.945312 299.839844 Z M 103.644531 -23.074219 " fill-opacity="1" fill-rule="nonzero"/></g></g></g></g></g></g></g></g><g clip-path="url(#84eb39baae)"><g clip-path="url(#b4f4428d4a)"><g clip-path="url(#5b6b59af21)"><g transform="matrix(1, 0, 0, 1, 24, 96)"><g clip-path="url(#fa25bfb045)"><g clip-path="url(#cff396a86c)"><g clip-path="url(#22ff774634)"><g clip-path="url(#f511cd2727)"><path fill="#8b8b8b" d="M -23.671875 80.914062 L 27.816406 -37.347656 L 350.730469 103.242188 L 299.238281 221.503906 Z M -23.671875 80.914062 " fill-opacity="1" fill-rule="nonzero"/></g></g></g></g></g></g></g></g><g clip-path="url(#1d7305424a)"><g clip-path="url(#d24be9932b)"><g clip-path="url(#6dad2980d3)"><g transform="matrix(1, 0, 0, 1, 20, 102)"><g clip-path="url(#d5f1006cd5)"><g clip-path="url(#d034bacbde)"><g clip-path="url(#bd49a390c4)"><g clip-path="url(#e6be0d591e)"><path fill="#8b8b8b" d="M 24.386719 207.21875 L -20.019531 86.121094 L 310.640625 -35.128906 L 355.046875 85.972656 Z M 24.386719 207.21875 " fill-opacity="1" fill-rule="nonzero"/></g></g></g></g></g></g></g></g><g clip-path="url(#6fc1227b85)"><g clip-path="url(#9ca0cfa005)"><g clip-path="url(#e23a7a2bde)"><g transform="matrix(1, 0, 0, 1, 99, 22)"><g clip-path="url(#2eac22f849)"><g clip-path="url(#08a98110f7)"><g clip-path="url(#e95f364094)"><g clip-path="url(#77c1fb9268)"><path fill="#8b8b8b" d="M 212.921875 306.3125 L 92.886719 353.527344 L -36.03125 25.78125 L 84 -21.433594 Z M 212.921875 306.3125 " fill-opacity="1" fill-rule="nonzero"/></g></g></g></g></g></g></g></g><g clip-path="url(#e5f8d7305a)"><g clip-path="url(#c2926519de)"><g clip-path="url(#0eaf6a2758)"><g transform="matrix(1, 0, 0, 1, 85, 85)"><g clip-path="url(#381ef6d540)"><g clip-path="url(#4220b4caaf)"><g clip-path="url(#94c5c9b350)"><g clip-path="url(#2b6a2fa830)"><path fill="#fbf7ec" d="M 49.609375 -31.34375 L 236.929688 50.210938 L 155.371094 237.535156 L -31.949219 155.976562 Z M 49.609375 -31.34375 " fill-opacity="1" fill-rule="nonzero"/></g></g></g></g></g></g></g></g></g></g></svg>